<?xml version="1.0" encoding="UTF-8"?>
<!DOCTYPE svg PUBLIC "-//W3C//DTD SVG 1.1//EN" "http://www.w3.org/Graphics/SVG/1.1/DTD/svg11.dtd">
<svg version="1.1" xmlns="http://www.w3.org/2000/svg" xmlns:xlink="http://www.w3.org/1999/xlink" x="0" y="0" width="724" height="960" viewBox="0, 0, 724, 960">
  <g id="Background">
    <rect x="0" y="0" width="724" height="960" fill="#F1FCDE"/>
    <g stroke-width="1px">
      <line x1="15" y1="15" x2="15" y2="945" stroke="#B9E4BB" stroke-opacity="0.8"/>
      <line x1="25" y1="15" x2="25" y2="945" stroke="#B9E4BB" stroke-opacity="0.8"/>
      <line x1="35" y1="15" x2="35" y2="945" stroke="#B9E4BB" stroke-opacity="0.8"/>
      <line x1="45" y1="15" x2="45" y2="945" stroke="#B9E4BB" stroke-opacity="0.8"/>
      <line x1="55" y1="15" x2="55" y2="945" stroke="#B9E4BB" stroke-opacity="0.8"/>
      <line x1="65" y1="15" x2="65" y2="945" stroke="#B9E4BB" stroke-opacity="0.8"/>
      <line x1="75" y1="15" x2="75" y2="945" stroke="#99C799" stroke-opacity="0.8"/>
      <line x1="85" y1="15" x2="85" y2="945" stroke="#B9E4BB" stroke-opacity="0.8"/>
      <line x1="95" y1="15" x2="95" y2="945" stroke="#B9E4BB" stroke-opacity="0.8"/>
      <line x1="105" y1="15" x2="105" y2="945" stroke="#B9E4BB" stroke-opacity="0.8"/>
      <line x1="115" y1="15" x2="115" y2="945" stroke="#B9E4BB" stroke-opacity="0.8"/>
      <line x1="125" y1="15" x2="125" y2="945" stroke="#B9E4BB" stroke-opacity="0.8"/>
      <line x1="135" y1="15" x2="135" y2="945" stroke="#99C799" stroke-opacity="0.8"/>
      <line x1="145" y1="15" x2="145" y2="945" stroke="#B9E4BB" stroke-opacity="0.8"/>
      <line x1="155" y1="15" x2="155" y2="945" stroke="#B9E4BB" stroke-opacity="0.8"/>
      <line x1="165" y1="15" x2="165" y2="945" stroke="#B9E4BB" stroke-opacity="0.8"/>
      <line x1="175" y1="15" x2="175" y2="945" stroke="#B9E4BB" stroke-opacity="0.8"/>
      <line x1="185" y1="15" x2="185" y2="945" stroke="#B9E4BB" stroke-opacity="0.8"/>
      <line x1="195" y1="15" x2="195" y2="945" stroke="#99C799" stroke-opacity="0.8"/>
      <line x1="205" y1="15" x2="205" y2="945" stroke="#B9E4BB" stroke-opacity="0.8"/>
      <line x1="215" y1="15" x2="215" y2="945" stroke="#B9E4BB" stroke-opacity="0.8"/>
      <line x1="225" y1="15" x2="225" y2="945" stroke="#B9E4BB" stroke-opacity="0.8"/>
      <line x1="235" y1="15" x2="235" y2="945" stroke="#B9E4BB" stroke-opacity="0.8"/>
      <line x1="245" y1="15" x2="245" y2="945" stroke="#B9E4BB" stroke-opacity="0.8"/>
      <line x1="255" y1="15" x2="255" y2="945" stroke="#99C799" stroke-opacity="0.8"/>
      <line x1="265" y1="15" x2="265" y2="945" stroke="#B9E4BB" stroke-opacity="0.8"/>
      <line x1="275" y1="15" x2="275" y2="945" stroke="#B9E4BB" stroke-opacity="0.8"/>
      <line x1="285" y1="15" x2="285" y2="945" stroke="#B9E4BB" stroke-opacity="0.8"/>
      <line x1="295" y1="15" x2="295" y2="945" stroke="#B9E4BB" stroke-opacity="0.8"/>
      <line x1="305" y1="15" x2="305" y2="945" stroke="#B9E4BB" stroke-opacity="0.8"/>
      <line x1="315" y1="15" x2="315" y2="945" stroke="#99C799" stroke-opacity="0.8"/>
      <line x1="325" y1="15" x2="325" y2="945" stroke="#B9E4BB" stroke-opacity="0.8"/>
      <line x1="335" y1="15" x2="335" y2="945" stroke="#B9E4BB" stroke-opacity="0.8"/>
      <line x1="345" y1="15" x2="345" y2="945" stroke="#B9E4BB" stroke-opacity="0.8"/>
      <line x1="355" y1="15" x2="355" y2="945" stroke="#B9E4BB" stroke-opacity="0.8"/>
      <line x1="365" y1="15" x2="365" y2="945" stroke="#B9E4BB" stroke-opacity="0.8"/>
      <line x1="375" y1="15" x2="375" y2="945" stroke="#99C799" stroke-opacity="0.8"/>
      <line x1="385" y1="15" x2="385" y2="945" stroke="#B9E4BB" stroke-opacity="0.8"/>
      <line x1="395" y1="15" x2="395" y2="945" stroke="#B9E4BB" stroke-opacity="0.8"/>
      <line x1="405" y1="15" x2="405" y2="945" stroke="#B9E4BB" stroke-opacity="0.8"/>
      <line x1="415" y1="15" x2="415" y2="945" stroke="#B9E4BB" stroke-opacity="0.8"/>
      <line x1="425" y1="15" x2="425" y2="945" stroke="#B9E4BB" stroke-opacity="0.8"/>
      <line x1="435" y1="15" x2="435" y2="945" stroke="#99C799" stroke-opacity="0.8"/>
      <line x1="445" y1="15" x2="445" y2="945" stroke="#B9E4BB" stroke-opacity="0.8"/>
      <line x1="455" y1="15" x2="455" y2="945" stroke="#B9E4BB" stroke-opacity="0.8"/>
      <line x1="465" y1="15" x2="465" y2="945" stroke="#B9E4BB" stroke-opacity="0.8"/>
      <line x1="475" y1="15" x2="475" y2="945" stroke="#B9E4BB" stroke-opacity="0.8"/>
      <line x1="485" y1="15" x2="485" y2="945" stroke="#B9E4BB" stroke-opacity="0.8"/>
      <line x1="495" y1="15" x2="495" y2="945" stroke="#99C799" stroke-opacity="0.8"/>
      <line x1="505" y1="15" x2="505" y2="945" stroke="#B9E4BB" stroke-opacity="0.8"/>
      <line x1="515" y1="15" x2="515" y2="945" stroke="#B9E4BB" stroke-opacity="0.8"/>
      <line x1="525" y1="15" x2="525" y2="945" stroke="#B9E4BB" stroke-opacity="0.8"/>
      <line x1="535" y1="15" x2="535" y2="945" stroke="#B9E4BB" stroke-opacity="0.8"/>
      <line x1="545" y1="15" x2="545" y2="945" stroke="#B9E4BB" stroke-opacity="0.8"/>
      <line x1="555" y1="15" x2="555" y2="945" stroke="#99C799" stroke-opacity="0.8"/>
      <line x1="565" y1="15" x2="565" y2="945" stroke="#B9E4BB" stroke-opacity="0.8"/>
      <line x1="575" y1="15" x2="575" y2="945" stroke="#B9E4BB" stroke-opacity="0.8"/>
      <line x1="585" y1="15" x2="585" y2="945" stroke="#B9E4BB" stroke-opacity="0.8"/>
      <line x1="595" y1="15" x2="595" y2="945" stroke="#B9E4BB" stroke-opacity="0.8"/>
      <line x1="605" y1="15" x2="605" y2="945" stroke="#B9E4BB" stroke-opacity="0.8"/>
      <line x1="615" y1="15" x2="615" y2="945" stroke="#99C799" stroke-opacity="0.8"/>
      <line x1="625" y1="15" x2="625" y2="945" stroke="#B9E4BB" stroke-opacity="0.8"/>
      <line x1="635" y1="15" x2="635" y2="945" stroke="#B9E4BB" stroke-opacity="0.8"/>
      <line x1="645" y1="15" x2="645" y2="945" stroke="#B9E4BB" stroke-opacity="0.8"/>
      <line x1="655" y1="15" x2="655" y2="945" stroke="#B9E4BB" stroke-opacity="0.8"/>
      <line x1="665" y1="15" x2="665" y2="945" stroke="#B9E4BB" stroke-opacity="0.8"/>
      <line x1="675" y1="15" x2="675" y2="945" stroke="#99C799" stroke-opacity="0.8"/>
      <line x1="685" y1="15" x2="685" y2="945" stroke="#B9E4BB" stroke-opacity="0.8"/>
      <line x1="695" y1="15" x2="695" y2="945" stroke="#B9E4BB" stroke-opacity="0.8"/>
      <line x1="705" y1="15" x2="705" y2="945" stroke="#B9E4BB" stroke-opacity="0.8"/>
      <line x1="15" y1="15" x2="709" y2="15" stroke="#B9E4BB" stroke-opacity="0.8"/>
      <line x1="15" y1="25" x2="709" y2="25" stroke="#B9E4BB" stroke-opacity="0.8"/>
      <line x1="15" y1="35" x2="709" y2="35" stroke="#B9E4BB" stroke-opacity="0.8"/>
      <line x1="15" y1="45" x2="709" y2="45" stroke="#B9E4BB" stroke-opacity="0.8"/>
      <line x1="15" y1="55" x2="709" y2="55" stroke="#B9E4BB" stroke-opacity="0.8"/>
      <line x1="15" y1="65" x2="709" y2="65" stroke="#B9E4BB" stroke-opacity="0.8"/>
      <line x1="15" y1="75" x2="709" y2="75" stroke="#99C799" stroke-opacity="0.8"/>
      <line x1="15" y1="85" x2="709" y2="85" stroke="#B9E4BB" stroke-opacity="0.8"/>
      <line x1="15" y1="95" x2="709" y2="95" stroke="#B9E4BB" stroke-opacity="0.8"/>
      <line x1="15" y1="105" x2="709" y2="105" stroke="#B9E4BB" stroke-opacity="0.8"/>
      <line x1="15" y1="115" x2="709" y2="115" stroke="#B9E4BB" stroke-opacity="0.8"/>
      <line x1="15" y1="125" x2="709" y2="125" stroke="#B9E4BB" stroke-opacity="0.8"/>
      <line x1="15" y1="135" x2="709" y2="135" stroke="#99C799" stroke-opacity="0.8"/>
      <line x1="15" y1="145" x2="709" y2="145" stroke="#B9E4BB" stroke-opacity="0.8"/>
      <line x1="15" y1="155" x2="709" y2="155" stroke="#B9E4BB" stroke-opacity="0.8"/>
      <line x1="15" y1="165" x2="709" y2="165" stroke="#B9E4BB" stroke-opacity="0.8"/>
      <line x1="15" y1="175" x2="709" y2="175" stroke="#B9E4BB" stroke-opacity="0.8"/>
      <line x1="15" y1="185" x2="709" y2="185" stroke="#B9E4BB" stroke-opacity="0.8"/>
      <line x1="15" y1="195" x2="709" y2="195" stroke="#99C799" stroke-opacity="0.8"/>
      <line x1="15" y1="205" x2="709" y2="205" stroke="#B9E4BB" stroke-opacity="0.8"/>
      <line x1="15" y1="215" x2="709" y2="215" stroke="#B9E4BB" stroke-opacity="0.8"/>
      <line x1="15" y1="225" x2="709" y2="225" stroke="#B9E4BB" stroke-opacity="0.8"/>
      <line x1="15" y1="235" x2="709" y2="235" stroke="#B9E4BB" stroke-opacity="0.8"/>
      <line x1="15" y1="245" x2="709" y2="245" stroke="#B9E4BB" stroke-opacity="0.8"/>
      <line x1="15" y1="255" x2="709" y2="255" stroke="#99C799" stroke-opacity="0.8"/>
      <line x1="15" y1="265" x2="709" y2="265" stroke="#B9E4BB" stroke-opacity="0.8"/>
      <line x1="15" y1="275" x2="709" y2="275" stroke="#B9E4BB" stroke-opacity="0.8"/>
      <line x1="15" y1="285" x2="709" y2="285" stroke="#B9E4BB" stroke-opacity="0.8"/>
      <line x1="15" y1="295" x2="709" y2="295" stroke="#B9E4BB" stroke-opacity="0.8"/>
      <line x1="15" y1="305" x2="709" y2="305" stroke="#B9E4BB" stroke-opacity="0.8"/>
      <line x1="15" y1="315" x2="709" y2="315" stroke="#99C799" stroke-opacity="0.8"/>
      <line x1="15" y1="325" x2="709" y2="325" stroke="#B9E4BB" stroke-opacity="0.8"/>
      <line x1="15" y1="335" x2="709" y2="335" stroke="#B9E4BB" stroke-opacity="0.8"/>
      <line x1="15" y1="345" x2="709" y2="345" stroke="#B9E4BB" stroke-opacity="0.8"/>
      <line x1="15" y1="355" x2="709" y2="355" stroke="#B9E4BB" stroke-opacity="0.8"/>
      <line x1="15" y1="365" x2="709" y2="365" stroke="#B9E4BB" stroke-opacity="0.8"/>
      <line x1="15" y1="375" x2="709" y2="375" stroke="#99C799" stroke-opacity="0.8"/>
      <line x1="15" y1="385" x2="709" y2="385" stroke="#B9E4BB" stroke-opacity="0.8"/>
      <line x1="15" y1="395" x2="709" y2="395" stroke="#B9E4BB" stroke-opacity="0.8"/>
      <line x1="15" y1="405" x2="709" y2="405" stroke="#B9E4BB" stroke-opacity="0.8"/>
      <line x1="15" y1="415" x2="709" y2="415" stroke="#B9E4BB" stroke-opacity="0.8"/>
      <line x1="15" y1="425" x2="709" y2="425" stroke="#B9E4BB" stroke-opacity="0.8"/>
      <line x1="15" y1="435" x2="709" y2="435" stroke="#99C799" stroke-opacity="0.8"/>
      <line x1="15" y1="445" x2="709" y2="445" stroke="#B9E4BB" stroke-opacity="0.8"/>
      <line x1="15" y1="455" x2="709" y2="455" stroke="#B9E4BB" stroke-opacity="0.8"/>
      <line x1="15" y1="465" x2="709" y2="465" stroke="#B9E4BB" stroke-opacity="0.8"/>
      <line x1="15" y1="475" x2="709" y2="475" stroke="#B9E4BB" stroke-opacity="0.8"/>
      <line x1="15" y1="485" x2="709" y2="485" stroke="#B9E4BB" stroke-opacity="0.8"/>
      <line x1="15" y1="495" x2="709" y2="495" stroke="#99C799" stroke-opacity="0.8"/>
      <line x1="15" y1="505" x2="709" y2="505" stroke="#B9E4BB" stroke-opacity="0.8"/>
      <line x1="15" y1="515" x2="709" y2="515" stroke="#B9E4BB" stroke-opacity="0.8"/>
      <line x1="15" y1="525" x2="709" y2="525" stroke="#B9E4BB" stroke-opacity="0.8"/>
      <line x1="15" y1="535" x2="709" y2="535" stroke="#B9E4BB" stroke-opacity="0.8"/>
      <line x1="15" y1="545" x2="709" y2="545" stroke="#B9E4BB" stroke-opacity="0.8"/>
      <line x1="15" y1="555" x2="709" y2="555" stroke="#99C799" stroke-opacity="0.8"/>
      <line x1="15" y1="565" x2="709" y2="565" stroke="#B9E4BB" stroke-opacity="0.8"/>
      <line x1="15" y1="575" x2="709" y2="575" stroke="#B9E4BB" stroke-opacity="0.8"/>
      <line x1="15" y1="585" x2="709" y2="585" stroke="#B9E4BB" stroke-opacity="0.8"/>
      <line x1="15" y1="595" x2="709" y2="595" stroke="#B9E4BB" stroke-opacity="0.8"/>
      <line x1="15" y1="605" x2="709" y2="605" stroke="#B9E4BB" stroke-opacity="0.8"/>
      <line x1="15" y1="615" x2="709" y2="615" stroke="#99C799" stroke-opacity="0.8"/>
      <line x1="15" y1="625" x2="709" y2="625" stroke="#B9E4BB" stroke-opacity="0.8"/>
      <line x1="15" y1="635" x2="709" y2="635" stroke="#B9E4BB" stroke-opacity="0.8"/>
      <line x1="15" y1="645" x2="709" y2="645" stroke="#B9E4BB" stroke-opacity="0.8"/>
      <line x1="15" y1="655" x2="709" y2="655" stroke="#B9E4BB" stroke-opacity="0.8"/>
      <line x1="15" y1="665" x2="709" y2="665" stroke="#B9E4BB" stroke-opacity="0.8"/>
      <line x1="15" y1="675" x2="709" y2="675" stroke="#99C799" stroke-opacity="0.8"/>
      <line x1="15" y1="685" x2="709" y2="685" stroke="#B9E4BB" stroke-opacity="0.8"/>
      <line x1="15" y1="695" x2="709" y2="695" stroke="#B9E4BB" stroke-opacity="0.8"/>
      <line x1="15" y1="705" x2="709" y2="705" stroke="#B9E4BB" stroke-opacity="0.8"/>
      <line x1="15" y1="715" x2="709" y2="715" stroke="#B9E4BB" stroke-opacity="0.8"/>
      <line x1="15" y1="725" x2="709" y2="725" stroke="#B9E4BB" stroke-opacity="0.8"/>
      <line x1="15" y1="735" x2="709" y2="735" stroke="#99C799" stroke-opacity="0.8"/>
      <line x1="15" y1="745" x2="709" y2="745" stroke="#B9E4BB" stroke-opacity="0.8"/>
      <line x1="15" y1="755" x2="709" y2="755" stroke="#B9E4BB" stroke-opacity="0.8"/>
      <line x1="15" y1="765" x2="709" y2="765" stroke="#B9E4BB" stroke-opacity="0.8"/>
      <line x1="15" y1="775" x2="709" y2="775" stroke="#B9E4BB" stroke-opacity="0.8"/>
      <line x1="15" y1="785" x2="709" y2="785" stroke="#B9E4BB" stroke-opacity="0.8"/>
      <line x1="15" y1="795" x2="709" y2="795" stroke="#99C799" stroke-opacity="0.8"/>
      <line x1="15" y1="805" x2="709" y2="805" stroke="#B9E4BB" stroke-opacity="0.8"/>
      <line x1="15" y1="815" x2="709" y2="815" stroke="#B9E4BB" stroke-opacity="0.8"/>
      <line x1="15" y1="825" x2="709" y2="825" stroke="#B9E4BB" stroke-opacity="0.8"/>
      <line x1="15" y1="835" x2="709" y2="835" stroke="#B9E4BB" stroke-opacity="0.8"/>
      <line x1="15" y1="845" x2="709" y2="845" stroke="#B9E4BB" stroke-opacity="0.8"/>
      <line x1="15" y1="855" x2="709" y2="855" stroke="#99C799" stroke-opacity="0.8"/>
      <line x1="15" y1="865" x2="709" y2="865" stroke="#B9E4BB" stroke-opacity="0.8"/>
      <line x1="15" y1="875" x2="709" y2="875" stroke="#B9E4BB" stroke-opacity="0.8"/>
      <line x1="15" y1="885" x2="709" y2="885" stroke="#B9E4BB" stroke-opacity="0.8"/>
      <line x1="15" y1="895" x2="709" y2="895" stroke="#B9E4BB" stroke-opacity="0.8"/>
      <line x1="15" y1="905" x2="709" y2="905" stroke="#B9E4BB" stroke-opacity="0.8"/>
      <line x1="15" y1="915" x2="709" y2="915" stroke="#99C799" stroke-opacity="0.8"/>
      <line x1="15" y1="925" x2="709" y2="925" stroke="#B9E4BB" stroke-opacity="0.8"/>
      <line x1="15" y1="935" x2="709" y2="935" stroke="#B9E4BB" stroke-opacity="0.8"/>
      <line x1="15" y1="945" x2="709" y2="945" stroke="#B9E4BB" stroke-opacity="0.8"/>
    </g>
  </g>
  <g id="Layer_1">
    <g>
      <g id="G1P">
        <path d="M116.859,82.359 C125.423,82.359 132.365,75.412 132.365,66.854 C132.365,58.284 125.423,51.35 116.859,51.35 C108.298,51.35 101.35,58.283 101.35,66.854 C101.349,75.412 108.298,82.359 116.859,82.359" fill="#FFFFFF"/>
        <path d="M116.859,83.709 C126.168,83.709 133.715,76.157 133.715,66.854 C133.715,57.545 126.168,50 116.859,50 C107.549,50 100,57.545 100,66.854 C99.999,76.157 107.549,83.709 116.859,83.709" fill="#000000"/>
        <path d="M116.62,58.149 L119.698,58.149 L119.698,75.488 L116.224,75.488 L116.224,62.101 L113.291,64.485 L111.551,62.227 z" fill="#FFFFFF"/>
      </g>
      <g >
        <path d="M116.859,157.359 C125.423,157.359 132.368,150.412 132.368,141.854 C132.368,133.284 125.422,126.35 116.859,126.35 C108.298,126.35 101.35,133.283 101.35,141.854 C101.349,150.412 108.298,157.359 116.859,157.359" fill="#FFFFFF"/>
        <path d="M116.859,158.709 C126.168,158.709 133.718,151.157 133.718,141.854 C133.718,132.545 126.168,125 116.859,125 C107.55,125 100,132.545 100,141.854 C99.999,151.157 107.549,158.709 116.859,158.709" fill="#000000"/>
        <path d="M111.329,150.492 L111.329,147.587 C112.941,146.02 118.828,141.105 118.828,137.927 C118.828,136.337 117.413,135.592 115.998,135.592 C114.533,135.592 113.139,136.232 111.999,136.977 L111.724,134.102 C113.29,133.307 115.105,132.857 116.87,132.857 C120.174,132.857 122.308,134.524 122.308,137.927 C122.308,141.604 118.605,144.979 115.774,147.764 L122.856,147.764 L122.856,150.492 L111.329,150.492 z" fill="#FFFFFF"/>
      </g>
      <g>
        <path d="M116.859,232.358 C125.423,232.358 132.368,225.411 132.368,216.847 C132.368,208.284 125.422,201.35 116.859,201.35 C108.298,201.35 101.35,208.283 101.35,216.847 C101.35,225.412 108.299,232.358 116.859,232.358" fill="#FFFFFF"/>
        <path d="M116.859,233.708 C126.168,233.708 133.718,226.163 133.718,216.847 C133.718,207.545 126.167,200 116.859,200 C107.55,200 100,207.545 100,216.847 C100,226.163 107.55,233.708 116.859,233.708" fill="#000000"/>
        <path d="M111.63,222.257 C112.825,222.735 114.114,223.059 115.481,223.059 C116.923,223.059 119.132,222.363 119.132,220.598 C119.132,218.559 117.52,217.891 115.305,217.891 L113.618,217.891 L113.618,215.156 L115.209,215.156 C117.546,215.156 119.057,214.389 119.057,212.871 C119.057,211.134 117.642,210.586 116.076,210.586 C114.711,210.586 113.395,210.909 112.177,211.507 L111.98,208.722 C113.369,208.174 115.032,207.85 116.821,207.85 C118.96,207.85 122.534,208.595 122.534,212.3 C122.534,214.656 121.07,215.773 119.305,216.448 L119.305,216.498 C121.52,216.793 122.61,218.509 122.61,220.618 C122.61,224.746 118.859,225.786 115.979,225.786 C114.464,225.786 112.726,225.589 111.432,225.216 L111.63,222.257 z" fill="#FFFFFF"/>
      </g>
      <g>
        <path d="M116.859,307.359 C125.423,307.359 132.368,300.412 132.368,291.854 C132.368,283.284 125.422,276.35 116.859,276.35 C108.295,276.35 101.35,283.283 101.35,291.854 C101.35,300.412 108.295,307.359 116.859,307.359" fill="#FFFFFF"/>
        <path d="M116.859,308.709 C126.172,308.709 133.718,301.157 133.718,291.854 C133.718,282.545 126.171,275 116.859,275 C107.549,275 100,282.545 100,291.854 C100,301.157 107.55,308.709 116.859,308.709" fill="#000000"/>
        <path d="M109.63,294.08 L116.114,283.149 L120.437,283.149 L120.437,294.307 L122.648,294.307 L122.648,296.888 L120.437,296.888 L120.437,300.488 L117.108,300.488 L117.108,296.888 L109.63,296.888 L109.63,294.08 z M117.108,294.308 L117.108,286.778 L117.056,286.778 L112.759,294.308 L117.108,294.308 z" fill="#FFFFFF"/>
      </g>
      <g>
        <path d="M116.859,382.361 C125.423,382.361 132.368,375.422 132.368,366.864 C132.368,358.294 125.422,351.354 116.859,351.354 C108.295,351.354 101.35,358.294 101.35,366.864 C101.35,375.422 108.295,382.361 116.859,382.361" fill="#FFFFFF"/>
        <path d="M116.859,383.715 C126.172,383.715 133.718,376.163 133.718,366.861 C133.718,357.544 126.171,350 116.859,350 C107.553,350 100,357.545 100,366.861 C100,376.163 107.553,383.715 116.859,383.715" fill="#000000"/>
        <path d="M122.487,360.746 L115.805,360.746 L115.729,364.452 C116.124,364.374 116.647,364.276 117.317,364.276 C119.755,364.276 122.909,365.416 122.909,369.916 C122.909,373.171 120.622,375.801 116.151,375.801 C114.812,375.801 113.245,375.576 112.105,375.301 L112.177,372.201 C113.022,372.546 114.215,373.073 115.729,373.073 C117.544,373.073 119.429,372.226 119.429,370.015 C119.429,367.779 117.443,367.012 115.455,367.012 C114.386,367.012 113.37,367.16 112.353,367.483 L112.524,358.166 L122.486,358.166 L122.486,360.746 z" fill="#FFFFFF"/>
      </g>
      <g>
        <path d="M116.859,457.361 C125.423,457.361 132.368,450.422 132.368,441.864 C132.368,433.294 125.422,426.354 116.859,426.354 C108.295,426.354 101.35,433.294 101.35,441.864 C101.35,450.422 108.295,457.361 116.859,457.361" fill="#FFFFFF"/>
        <path d="M116.859,458.715 C126.172,458.715 133.718,451.163 133.718,441.861 C133.718,432.544 126.171,425 116.859,425 C107.553,425 100,432.545 100,441.861 C100,451.163 107.553,458.715 116.859,458.715" fill="#000000"/>
        <path d="M121.013,436.293 C120.095,435.892 119.153,435.597 117.986,435.597 C114.98,435.597 113.96,438.382 113.86,440.962 L113.912,441.012 C114.733,439.824 115.798,439.275 117.262,439.275 C120.543,439.275 122.332,441.362 122.332,444.562 C122.332,448.317 120.492,450.799 116.569,450.799 C111.752,450.799 110.683,446.798 110.683,442.727 C110.683,438.03 112.199,432.862 117.811,432.862 C119.079,432.862 120.27,433.063 121.461,433.487 L121.013,436.293 z M114.159,445.138 C114.159,446.776 114.853,448.214 116.568,448.214 C118.185,448.214 118.855,446.65 118.855,445.11 C118.855,443.423 118.159,441.855 116.492,441.855 C114.805,441.855 114.159,443.395 114.159,445.138" fill="#FFFFFF"/>
      </g>
    </g>
    <g>
      <path d="M350.438,143.498 C315.378,143.866 311.211,83.806 337.416,68.844" fill-opacity="0" stroke="#000000" stroke-width="3"/>
      <path d="M338.46,72.912 L348.264,66.058 L336.371,64.776 z" fill="#000000" fill-opacity="1" stroke="#000000" stroke-width="3" stroke-opacity="1"/>
    </g>
    <g>
      <g>
        <path d="M366.859,82.359 C375.423,82.359 382.365,75.412 382.365,66.854 C382.365,58.284 375.423,51.35 366.859,51.35 C358.298,51.35 351.35,58.283 351.35,66.854 C351.349,75.412 358.298,82.359 366.859,82.359" fill="#FFFFFF"/>
        <path d="M366.859,83.709 C376.168,83.709 383.715,76.157 383.715,66.854 C383.715,57.545 376.168,50 366.859,50 C357.549,50 350,57.545 350,66.854 C349.999,76.157 357.549,83.709 366.859,83.709" fill="#000000"/>
        <path d="M366.62,58.149 L369.698,58.149 L369.698,75.488 L366.224,75.488 L366.224,62.101 L363.291,64.485 L361.551,62.227 z" fill="#FFFFFF"/>
      </g>
      <g>
        <path d="M366.859,157.359 C375.423,157.359 382.368,150.412 382.368,141.854 C382.368,133.284 375.422,126.35 366.859,126.35 C358.298,126.35 351.35,133.283 351.35,141.854 C351.349,150.412 358.298,157.359 366.859,157.359" fill="#FFFFFF"/>
        <path d="M366.859,158.709 C376.168,158.709 383.718,151.157 383.718,141.854 C383.718,132.545 376.167,125 366.859,125 C357.55,125 350,132.545 350,141.854 C349.999,151.157 357.549,158.709 366.859,158.709" fill="#000000"/>
        <path d="M361.329,150.492 L361.329,147.587 C362.941,146.02 368.828,141.105 368.828,137.927 C368.828,136.337 367.413,135.592 365.997,135.592 C364.533,135.592 363.139,136.232 361.999,136.977 L361.724,134.102 C363.29,133.307 365.105,132.857 366.87,132.857 C370.174,132.857 372.308,134.524 372.308,137.927 C372.308,141.604 368.605,144.979 365.774,147.764 L372.856,147.764 L372.856,150.492 L361.329,150.492 z" fill="#FFFFFF"/>
      </g>
      <g>
        <path d="M366.859,232.358 C375.423,232.358 382.368,225.411 382.368,216.847 C382.368,208.284 375.422,201.35 366.859,201.35 C358.298,201.35 351.35,208.283 351.35,216.847 C351.35,225.412 358.299,232.358 366.859,232.358" fill="#FFFFFF"/>
        <path d="M366.859,233.708 C376.168,233.708 383.718,226.163 383.718,216.847 C383.718,207.545 376.167,200 366.859,200 C357.55,200 350,207.545 350,216.847 C350,226.163 357.55,233.708 366.859,233.708" fill="#000000"/>
        <path d="M361.63,222.257 C362.825,222.735 364.114,223.059 365.481,223.059 C366.923,223.059 369.132,222.363 369.132,220.598 C369.132,218.559 367.52,217.891 365.305,217.891 L363.618,217.891 L363.618,215.156 L365.209,215.156 C367.546,215.156 369.057,214.389 369.057,212.871 C369.057,211.134 367.642,210.586 366.076,210.586 C364.711,210.586 363.395,210.909 362.177,211.507 L361.98,208.722 C363.369,208.174 365.032,207.85 366.821,207.85 C368.96,207.85 372.534,208.595 372.534,212.3 C372.534,214.656 371.07,215.773 369.305,216.448 L369.305,216.498 C371.52,216.793 372.61,218.509 372.61,220.618 C372.61,224.746 368.859,225.786 365.979,225.786 C364.464,225.786 362.726,225.589 361.432,225.216 L361.63,222.257 z" fill="#FFFFFF"/>
      </g>
      <g>
        <path d="M366.859,307.359 C375.423,307.359 382.368,300.412 382.368,291.854 C382.368,283.284 375.422,276.35 366.859,276.35 C358.295,276.35 351.35,283.283 351.35,291.854 C351.35,300.412 358.295,307.359 366.859,307.359" fill="#FFFFFF"/>
        <path d="M366.859,308.709 C376.172,308.709 383.718,301.157 383.718,291.854 C383.718,282.545 376.171,275 366.859,275 C357.549,275 350,282.545 350,291.854 C350,301.157 357.55,308.709 366.859,308.709" fill="#000000"/>
        <path d="M359.63,294.08 L366.114,283.149 L370.437,283.149 L370.437,294.307 L372.648,294.307 L372.648,296.888 L370.437,296.888 L370.437,300.488 L367.108,300.488 L367.108,296.888 L359.63,296.888 L359.63,294.08 z M367.108,294.308 L367.108,286.778 L367.056,286.778 L362.759,294.308 L367.108,294.308 z" fill="#FFFFFF"/>
      </g>
      <g>
        <path d="M366.859,382.361 C375.423,382.361 382.368,375.422 382.368,366.864 C382.368,358.294 375.422,351.354 366.859,351.354 C358.295,351.354 351.35,358.294 351.35,366.864 C351.35,375.422 358.295,382.361 366.859,382.361" fill="#FFFFFF"/>
        <path d="M366.859,383.715 C376.172,383.715 383.718,376.163 383.718,366.861 C383.718,357.544 376.171,350 366.859,350 C357.553,350 350,357.545 350,366.861 C350,376.163 357.553,383.715 366.859,383.715" fill="#000000"/>
        <path d="M372.486,360.747 L365.805,360.747 L365.729,364.452 C366.124,364.374 366.647,364.276 367.317,364.276 C369.755,364.276 372.909,365.416 372.909,369.916 C372.909,373.171 370.622,375.801 366.151,375.801 C364.812,375.801 363.245,375.576 362.105,375.301 L362.177,372.201 C363.022,372.546 364.215,373.073 365.729,373.073 C367.544,373.073 369.429,372.226 369.429,370.015 C369.429,367.779 367.443,367.012 365.455,367.012 C364.386,367.012 363.37,367.16 362.353,367.483 L362.524,358.166 L372.486,358.166 L372.486,360.747 z" fill="#FFFFFF"/>
      </g>
      <g>
        <path d="M366.859,457.361 C375.423,457.361 382.368,450.422 382.368,441.864 C382.368,433.294 375.422,426.354 366.859,426.354 C358.295,426.354 351.35,433.294 351.35,441.864 C351.35,450.422 358.295,457.361 366.859,457.361" fill="#FFFFFF"/>
        <path d="M366.859,458.715 C376.172,458.715 383.718,451.163 383.718,441.861 C383.718,432.544 376.171,425 366.859,425 C357.553,425 350,432.545 350,441.861 C350,451.163 357.553,458.715 366.859,458.715" fill="#000000"/>
        <path d="M371.013,436.293 C370.095,435.892 369.153,435.597 367.986,435.597 C364.98,435.597 363.96,438.382 363.86,440.962 L363.912,441.012 C364.733,439.824 365.798,439.275 367.262,439.275 C370.543,439.275 372.332,441.363 372.332,444.562 C372.332,448.317 370.492,450.799 366.569,450.799 C361.752,450.799 360.683,446.799 360.683,442.727 C360.683,438.03 362.199,432.862 367.811,432.862 C369.079,432.862 370.27,433.063 371.461,433.488 L371.013,436.293 z M364.159,445.138 C364.159,446.776 364.853,448.214 366.568,448.214 C368.185,448.214 368.855,446.65 368.855,445.11 C368.855,443.423 368.159,441.855 366.492,441.855 C364.805,441.855 364.159,443.395 364.159,445.138" fill="#FFFFFF"/>
      </g>
    </g>
    <g>
      <path d="M350.438,443.498 C315.378,443.866 311.211,383.806 337.416,368.844" fill-opacity="0" stroke="#000000" stroke-width="3"/>
      <path d="M338.46,372.912 L348.264,366.058 L336.371,364.776 z" fill="#000000" fill-opacity="1" stroke="#000000" stroke-width="3" stroke-opacity="1"/>
    </g>
    <g>
      <path d="M350.438,293.498 C315.378,293.866 311.211,233.806 337.416,218.844" fill-opacity="0" stroke="#000000" stroke-width="3"/>
      <path d="M338.46,222.912 L348.264,216.058 L336.371,214.776 z" fill="#000000" fill-opacity="1" stroke="#000000" stroke-width="3" stroke-opacity="1"/>
    </g>
    <g>
      <path d="M385.5,65.502 C420.56,65.134 424.727,125.194 398.522,140.156" fill-opacity="0" stroke="#000000" stroke-width="3"/>
      <path d="M397.478,136.088 L387.674,142.942 L399.567,144.224 z" fill="#000000" fill-opacity="1" stroke="#000000" stroke-width="3" stroke-opacity="1"/>
    </g>
    <g>
      <path d="M385.5,365.502 C420.56,365.134 424.727,425.194 398.522,440.156" fill-opacity="0" stroke="#000000" stroke-width="3"/>
      <path d="M397.478,436.088 L387.674,442.942 L399.567,444.224 z" fill="#000000" fill-opacity="1" stroke="#000000" stroke-width="3" stroke-opacity="1"/>
    </g>
    <g>
      <path d="M385.5,215.502 C420.56,215.134 424.727,275.194 398.522,290.156" fill-opacity="0" stroke="#000000" stroke-width="3"/>
      <path d="M397.478,286.088 L387.674,292.942 L399.567,294.224 z" fill="#000000" fill-opacity="1" stroke="#000000" stroke-width="3" stroke-opacity="1"/>
    </g>
    <g>
      <path d="M133.5,65.5 C188.04,65.996 188.911,191.721 147.282,214.928" fill-opacity="0" stroke="#000000" stroke-width="3"/>
      <path d="M146.146,210.884 L136.499,217.956 L148.418,218.971 z" fill="#000000" fill-opacity="1" stroke="#000000" stroke-width="3" stroke-opacity="1"/>
    </g>
    <g>
      <path d="M133.5,140.5 C188.04,140.996 188.911,266.721 147.282,289.928" fill-opacity="0" stroke="#000000" stroke-width="3"/>
      <path d="M146.146,285.884 L136.499,292.956 L148.418,293.971 z" fill="#000000" fill-opacity="1" stroke="#000000" stroke-width="3" stroke-opacity="1"/>
    </g>
    <g>
      <path d="M133.5,220.5 C189.185,220.997 189.986,347.124 147.344,370.038" fill-opacity="0" stroke="#000000" stroke-width="3"/>
      <path d="M146.245,365.985 L136.535,372.971 L148.444,374.092 z" fill="#000000" fill-opacity="1" stroke="#000000" stroke-width="3" stroke-opacity="1"/>
    </g>
    <g>
      <path d="M133.5,296.5 C188.04,296.996 188.911,422.721 147.282,445.928" fill-opacity="0" stroke="#000000" stroke-width="3"/>
      <path d="M146.146,441.884 L136.499,448.956 L148.418,449.971 z" fill="#000000" fill-opacity="1" stroke="#000000" stroke-width="3" stroke-opacity="1"/>
    </g>
    <g>
      <path d="M99.5,218.569 C43.815,218.073 43.014,91.945 85.656,69.031" fill-opacity="0" stroke="#000000" stroke-width="3"/>
      <path d="M86.755,73.084 L96.465,66.098 L84.556,64.977 z" fill="#000000" fill-opacity="1" stroke="#000000" stroke-width="3" stroke-opacity="1"/>
    </g>
    <g>
      <path d="M99.5,373.569 C43.815,373.073 43.014,246.945 85.656,224.031" fill-opacity="0" stroke="#000000" stroke-width="3"/>
      <path d="M86.755,228.084 L96.465,221.098 L84.556,219.977 z" fill="#000000" fill-opacity="1" stroke="#000000" stroke-width="3" stroke-opacity="1"/>
    </g>
    <g>
      <path d="M99.5,293.569 C43.815,293.073 43.014,166.945 85.656,144.031" fill-opacity="0" stroke="#000000" stroke-width="3"/>
      <path d="M86.755,148.084 L96.465,141.098 L84.556,139.977 z" fill="#000000" fill-opacity="1" stroke="#000000" stroke-width="3" stroke-opacity="1"/>
    </g>
    <g>
      <path d="M99.5,449.569 C43.815,449.073 43.014,322.945 85.656,300.031" fill-opacity="0" stroke="#000000" stroke-width="3"/>
      <path d="M86.755,304.084 L96.465,297.098 L84.556,295.977 z" fill="#000000" fill-opacity="1" stroke="#000000" stroke-width="3" stroke-opacity="1"/>
    </g>
    <g>
      <g>
        <path d="M129.163,455.551 C173.656,477.713 295.532,479.049 344.125,460.77" fill-opacity="0" stroke="#000000" stroke-width="3"/>
        <path d="M345.989,464.533 L354.16,455.798 L342.26,457.006 z" fill="#000000" fill-opacity="1" stroke="#000000" stroke-width="3" stroke-opacity="1"/>
      </g>
      <g>
        <path d="M358.5,428.771 C313.989,406.6 188.822,403.987 139.69,422.058" fill-opacity="0" stroke="#000000" stroke-width="3"/>
        <path d="M137.844,418.286 L129.631,426.982 L141.537,425.831 z" fill="#000000" fill-opacity="1" stroke="#000000" stroke-width="3" stroke-opacity="1"/>
      </g>
    </g>
    <g>
      <g>
        <path d="M129.163,379.929 C173.656,402.092 295.532,403.427 344.125,385.148" fill-opacity="0" stroke="#000000" stroke-width="3"/>
        <path d="M345.989,388.912 L354.16,380.176 L342.26,381.385 z" fill="#000000" fill-opacity="1" stroke="#000000" stroke-width="3" stroke-opacity="1"/>
      </g>
      <g>
        <path d="M358.5,353.15 C313.989,330.978 188.821,328.366 139.69,346.437" fill-opacity="0" stroke="#000000" stroke-width="3"/>
        <path d="M137.844,342.665 L129.631,351.361 L141.537,350.209 z" fill="#000000" fill-opacity="1" stroke="#000000" stroke-width="3" stroke-opacity="1"/>
      </g>
    </g>
    <g>
      <g>
        <path d="M129.163,304.929 C173.656,327.092 295.532,328.427 344.125,310.148" fill-opacity="0" stroke="#000000" stroke-width="3"/>
        <path d="M345.989,313.912 L354.16,305.176 L342.26,306.385 z" fill="#000000" fill-opacity="1" stroke="#000000" stroke-width="3" stroke-opacity="1"/>
      </g>
      <g>
        <path d="M358.5,278.15 C313.989,255.978 188.821,253.366 139.69,271.437" fill-opacity="0" stroke="#000000" stroke-width="3"/>
        <path d="M137.844,267.665 L129.631,276.361 L141.537,275.209 z" fill="#000000" fill-opacity="1" stroke="#000000" stroke-width="3" stroke-opacity="1"/>
      </g>
    </g>
    <g>
      <g>
        <path d="M129.163,230.929 C173.656,253.092 295.532,254.427 344.125,236.148" fill-opacity="0" stroke="#000000" stroke-width="3"/>
        <path d="M345.989,239.912 L354.16,231.176 L342.26,232.385 z" fill="#000000" fill-opacity="1" stroke="#000000" stroke-width="3" stroke-opacity="1"/>
      </g>
      <g>
        <path d="M358.5,204.15 C313.989,181.978 188.821,179.366 139.69,197.437" fill-opacity="0" stroke="#000000" stroke-width="3"/>
        <path d="M137.844,193.665 L129.631,202.361 L141.537,201.209 z" fill="#000000" fill-opacity="1" stroke="#000000" stroke-width="3" stroke-opacity="1"/>
      </g>
    </g>
    <g>
      <g>
        <path d="M129.163,155.929 C173.656,178.092 295.532,179.427 344.125,161.148" fill-opacity="0" stroke="#000000" stroke-width="3"/>
        <path d="M345.989,164.912 L354.16,156.176 L342.26,157.385 z" fill="#000000" fill-opacity="1" stroke="#000000" stroke-width="3" stroke-opacity="1"/>
      </g>
      <g>
        <path d="M358.5,129.15 C313.989,106.978 188.821,104.366 139.69,122.437" fill-opacity="0" stroke="#000000" stroke-width="3"/>
        <path d="M137.844,118.665 L129.631,127.361 L141.537,126.209 z" fill="#000000" fill-opacity="1" stroke="#000000" stroke-width="3" stroke-opacity="1"/>
      </g>
    </g>
    <g>
      <g>
        <path d="M129.163,81.929 C173.656,104.092 295.532,105.427 344.125,87.148" fill-opacity="0" stroke="#000000" stroke-width="3"/>
        <path d="M345.989,90.912 L354.16,82.176 L342.26,83.385 z" fill="#000000" fill-opacity="1" stroke="#000000" stroke-width="3" stroke-opacity="1"/>
      </g>
      <g>
        <path d="M358.5,55.15 C313.989,32.978 188.821,30.366 139.69,48.437" fill-opacity="0" stroke="#000000" stroke-width="3"/>
        <path d="M137.844,44.665 L129.631,53.361 L141.537,52.209 z" fill="#000000" fill-opacity="1" stroke="#000000" stroke-width="3" stroke-opacity="1"/>
      </g>
    </g>
  </g>
</svg>
